<svg width="30" height="31" viewBox="0 0 30 31" fill="none" xmlns="http://www.w3.org/2000/svg">
<g filter="url(#filter0_d_213_20675)">
<path d="M15 22.75C9.07 22.75 4.25 17.93 4.25 12C4.25 9.64 5 7.4 6.42 5.52C6.67 5.19 7.14 5.13 7.47 5.38C7.8 5.63 7.87 6.1 7.62 6.43C6.4 8.04 5.75 9.97 5.75 12C5.75 17.1 9.9 21.25 15 21.25C20.1 21.25 24.25 17.1 24.25 12C24.25 6.9 20.1 2.75 15 2.75C14.59 2.75 14.25 2.41 14.25 2C14.25 1.59 14.59 1.25 15 1.25C20.93 1.25 25.75 6.07 25.75 12C25.75 17.93 20.93 22.75 15 22.75Z" fill="white"/>
<path d="M15 19.75C10.73 19.75 7.25 16.27 7.25 12C7.25 11.59 7.59 11.25 8 11.25C8.41 11.25 8.75 11.59 8.75 12C8.75 15.45 11.55 18.25 15 18.25C18.45 18.25 21.25 15.45 21.25 12C21.25 8.55 18.45 5.75 15 5.75C14.59 5.75 14.25 5.41 14.25 5C14.25 4.59 14.59 4.25 15 4.25C19.27 4.25 22.75 7.73 22.75 12C22.75 16.27 19.27 19.75 15 19.75Z" fill="white"/>
<path d="M15 16.75C14.59 16.75 14.25 16.41 14.25 16C14.25 15.59 14.59 15.25 15 15.25C16.79 15.25 18.25 13.79 18.25 12C18.25 10.21 16.79 8.75 15 8.75C14.59 8.75 14.25 8.41 14.25 8C14.25 7.59 14.59 7.25 15 7.25C17.62 7.25 19.75 9.38 19.75 12C19.75 14.62 17.62 16.75 15 16.75Z" fill="white"/>
</g>
<defs>
<filter id="filter0_d_213_20675" x="-1" y="0" width="32" height="32" filterUnits="userSpaceOnUse" color-interpolation-filters="sRGB">
<feFlood flood-opacity="0" result="BackgroundImageFix"/>
<feColorMatrix in="SourceAlpha" type="matrix" values="0 0 0 0 0 0 0 0 0 0 0 0 0 0 0 0 0 0 127 0" result="hardAlpha"/>
<feOffset dy="4"/>
<feGaussianBlur stdDeviation="2"/>
<feComposite in2="hardAlpha" operator="out"/>
<feColorMatrix type="matrix" values="0 0 0 0 0 0 0 0 0 0 0 0 0 0 0 0 0 0 0.25 0"/>
<feBlend mode="normal" in2="BackgroundImageFix" result="effect1_dropShadow_213_20675"/>
<feBlend mode="normal" in="SourceGraphic" in2="effect1_dropShadow_213_20675" result="shape"/>
</filter>
</defs>
</svg>
