<svg width="30" height="47" viewBox="0 0 30 47" fill="none" xmlns="http://www.w3.org/2000/svg">
<g filter="url(#filter0_d_90_11687)">
<path d="M15 18.75C14.59 18.75 14.25 18.41 14.25 18V15C14.25 14.59 14.59 14.25 15 14.25C15.41 14.25 15.75 14.59 15.75 15V18C15.75 18.41 15.41 18.75 15 18.75Z" fill="white"/>
<path d="M20.6 22.5598H9.39996C7.57996 22.5598 5.91996 21.1598 5.61996 19.3698L4.28996 11.3998C4.06996 10.1598 4.67996 8.56982 5.66996 7.77982L12.6 2.22982C13.94 1.14982 16.05 1.15982 17.4 2.23982L24.33 7.77982C25.31 8.56982 25.91 10.1598 25.71 11.3998L24.38 19.3598C24.08 21.1298 22.38 22.5598 20.6 22.5598ZM14.99 2.92982C14.46 2.92982 13.93 3.08982 13.54 3.39982L6.60996 8.95982C6.04996 9.40982 5.64996 10.4498 5.76996 11.1598L7.09996 19.1198C7.27996 20.1698 8.32996 21.0598 9.39996 21.0598H20.6C21.67 21.0598 22.72 20.1698 22.9 19.1098L24.23 11.1498C24.34 10.4498 23.94 9.38982 23.39 8.94982L16.46 3.40982C16.06 3.08982 15.52 2.92982 14.99 2.92982Z" fill="white"/>
</g>
<path d="M4.9167 45V36.6H6.1887V40.14H7.7007V36.6H8.9727V45H7.7007V41.34H6.1887V45H4.9167ZM12.2979 45.12C11.6899 45.12 11.1979 44.936 10.8219 44.568C10.4459 44.192 10.2579 43.7 10.2579 43.092V38.508C10.2579 37.9 10.4459 37.412 10.8219 37.044C11.1979 36.668 11.6899 36.48 12.2979 36.48C12.9059 36.48 13.3979 36.668 13.7739 37.044C14.1499 37.412 14.3379 37.9 14.3379 38.508V43.092C14.3379 43.7 14.1499 44.192 13.7739 44.568C13.3979 44.936 12.9059 45.12 12.2979 45.12ZM12.2979 43.92C12.5379 43.92 12.7259 43.848 12.8619 43.704C12.9979 43.56 13.0659 43.356 13.0659 43.092V38.508C13.0659 38.244 12.9979 38.04 12.8619 37.896C12.7259 37.752 12.5379 37.68 12.2979 37.68C12.0579 37.68 11.8699 37.752 11.7339 37.896C11.5979 38.04 11.5299 38.244 11.5299 38.508V43.092C11.5299 43.356 11.5979 43.56 11.7339 43.704C11.8699 43.848 12.0579 43.92 12.2979 43.92ZM21.4116 36.6V45H20.1396V39.24L18.9516 45H18.0636L16.8756 39.24V45H15.6276V36.6H17.4276L18.5316 41.964L19.5876 36.6H21.4116ZM22.7995 36.6H26.4115V37.8H24.0715V40.14H25.9315V41.34H24.0715V43.8H26.4115V45H22.7995V36.6Z" fill="white"/>
<defs>
<filter id="filter0_d_90_11687" x="-1" y="0" width="32" height="32" filterUnits="userSpaceOnUse" color-interpolation-filters="sRGB">
<feFlood flood-opacity="0" result="BackgroundImageFix"/>
<feColorMatrix in="SourceAlpha" type="matrix" values="0 0 0 0 0 0 0 0 0 0 0 0 0 0 0 0 0 0 127 0" result="hardAlpha"/>
<feOffset dy="4"/>
<feGaussianBlur stdDeviation="2"/>
<feComposite in2="hardAlpha" operator="out"/>
<feColorMatrix type="matrix" values="0 0 0 0 0 0 0 0 0 0 0 0 0 0 0 0 0 0 0.25 0"/>
<feBlend mode="normal" in2="BackgroundImageFix" result="effect1_dropShadow_90_11687"/>
<feBlend mode="normal" in="SourceGraphic" in2="effect1_dropShadow_90_11687" result="shape"/>
</filter>
</defs>
</svg>
