<svg width="31" height="47" viewBox="0 0 31 47" fill="none" xmlns="http://www.w3.org/2000/svg">
<g filter="url(#filter0_d_213_20670)">
<path d="M21.9702 22.75H7.97021C4.22021 22.75 4.22021 20.67 4.22021 19V18C4.22021 17.04 5.01021 16.25 5.97021 16.25H23.9702C24.9302 16.25 25.7202 17.04 25.7202 18V19C25.7202 20.67 25.7202 22.75 21.9702 22.75ZM5.97021 17.75C5.83021 17.75 5.72021 17.86 5.72021 18V19C5.72021 20.64 5.72021 21.25 7.97021 21.25H21.9702C24.2202 21.25 24.2202 20.64 24.2202 19V18C24.2202 17.86 24.1102 17.75 23.9702 17.75H5.97021Z" fill="white"/>
<path d="M23.72 17.75H6.27002C5.86002 17.75 5.52002 17.41 5.52002 17V13C5.52002 8.9 8.43002 5.3 12.43 4.45C13.02 4.32 13.64 4.25 14.27 4.25H15.72C16.36 4.25 16.98 4.32 17.57 4.45C21.57 5.31 24.47 8.91 24.47 13V17C24.47 17.41 24.14 17.75 23.72 17.75ZM7.02002 16.25H22.97V13C22.97 9.61 20.57 6.63 17.25 5.91C16.76 5.8 16.25 5.75 15.72 5.75H14.27C13.75 5.75 13.24 5.8 12.75 5.91C9.43002 6.62 7.02002 9.6 7.02002 13V16.25Z" fill="white"/>
<path d="M12.59 5.93C12.26 5.93 11.96 5.71 11.87 5.38C11.79 5.09 11.75 4.8 11.75 4.5C11.75 2.71 13.21 1.25 15 1.25C16.79 1.25 18.25 2.71 18.25 4.5C18.25 4.8 18.21 5.09 18.13 5.38C18.03 5.76 17.65 6 17.25 5.91C16.76 5.8 16.25 5.75 15.72 5.75H14.27C13.75 5.75 13.24 5.8 12.75 5.91C12.7 5.92 12.65 5.93 12.59 5.93ZM14.27 4.25H15.72C16.06 4.25 16.41 4.27 16.74 4.31C16.65 3.43 15.9 2.75 15 2.75C14.1 2.75 13.36 3.43 13.26 4.31C13.6 4.27 13.93 4.25 14.27 4.25Z" fill="white"/>
<path d="M18 11.75H12C11.59 11.75 11.25 11.41 11.25 11C11.25 10.59 11.59 10.25 12 10.25H18C18.41 10.25 18.75 10.59 18.75 11C18.75 11.41 18.41 11.75 18 11.75Z" fill="white"/>
</g>
<path d="M2.86433 45.12C2.25633 45.12 1.76433 44.936 1.38833 44.568C1.01233 44.192 0.824328 43.7 0.824328 43.092V38.508C0.824328 37.9 1.01233 37.412 1.38833 37.044C1.76433 36.668 2.25633 36.48 2.86433 36.48C3.47233 36.48 3.96433 36.668 4.34033 37.044C4.71633 37.412 4.90433 37.9 4.90433 38.508V43.092C4.90433 43.7 4.71633 44.192 4.34033 44.568C3.96433 44.936 3.47233 45.12 2.86433 45.12ZM2.86433 43.92C3.10433 43.92 3.29233 43.848 3.42833 43.704C3.56433 43.56 3.63233 43.356 3.63233 43.092V38.508C3.63233 38.244 3.56433 38.04 3.42833 37.896C3.29233 37.752 3.10433 37.68 2.86433 37.68C2.62433 37.68 2.43633 37.752 2.30033 37.896C2.16433 38.04 2.09633 38.244 2.09633 38.508V43.092C2.09633 43.356 2.16433 43.56 2.30033 43.704C2.43633 43.848 2.62433 43.92 2.86433 43.92ZM9.05005 45L8.12605 41.532H7.46605V45H6.19405V36.6H8.18605C8.79405 36.6 9.27805 36.784 9.63805 37.152C9.99805 37.512 10.178 37.996 10.178 38.604V39.528C10.178 39.912 10.102 40.252 9.95005 40.548C9.79805 40.844 9.58205 41.076 9.30205 41.244L10.37 45H9.05005ZM7.46605 40.332H8.12605C8.37405 40.332 8.56605 40.264 8.70205 40.128C8.83805 39.992 8.90605 39.8 8.90605 39.552V38.58C8.90605 38.332 8.83805 38.14 8.70205 38.004C8.56605 37.868 8.37405 37.8 8.12605 37.8H7.46605V40.332ZM11.4089 36.6H13.4009C14.0089 36.6 14.4929 36.784 14.8529 37.152C15.2129 37.512 15.3929 37.996 15.3929 38.604V42.996C15.3929 43.604 15.2129 44.092 14.8529 44.46C14.4929 44.82 14.0089 45 13.4009 45H11.4089V36.6ZM13.3409 43.8C13.5889 43.8 13.7809 43.732 13.9169 43.596C14.0529 43.46 14.1209 43.268 14.1209 43.02V38.58C14.1209 38.332 14.0529 38.14 13.9169 38.004C13.7809 37.868 13.5889 37.8 13.3409 37.8H12.6809V43.8H13.3409ZM16.6706 36.6H20.2826V37.8H17.9426V40.14H19.8026V41.34H17.9426V43.8H20.2826V45H16.6706V36.6ZM24.2024 45L23.2784 41.532H22.6184V45H21.3464V36.6H23.3384C23.9464 36.6 24.4304 36.784 24.7904 37.152C25.1504 37.512 25.3304 37.996 25.3304 38.604V39.528C25.3304 39.912 25.2544 40.252 25.1024 40.548C24.9504 40.844 24.7344 41.076 24.4544 41.244L25.5224 45H24.2024ZM22.6184 40.332H23.2784C23.5264 40.332 23.7184 40.264 23.8544 40.128C23.9904 39.992 24.0584 39.8 24.0584 39.552V38.58C24.0584 38.332 23.9904 38.14 23.8544 38.004C23.7184 37.868 23.5264 37.8 23.2784 37.8H22.6184V40.332ZM28.3252 45.12C27.9252 45.12 27.5692 45.032 27.2572 44.856C26.9452 44.68 26.7012 44.436 26.5252 44.124C26.3572 43.812 26.2732 43.456 26.2732 43.056V42.756L27.4972 42.624V42.936C27.4972 43.24 27.5692 43.48 27.7132 43.656C27.8572 43.832 28.0572 43.92 28.3132 43.92C28.5612 43.92 28.7572 43.848 28.9012 43.704C29.0532 43.56 29.1292 43.364 29.1292 43.116C29.1292 42.844 29.0492 42.584 28.8892 42.336C28.7372 42.088 28.4292 41.744 27.9652 41.304C27.3412 40.712 26.9132 40.22 26.6812 39.828C26.4572 39.436 26.3452 39.008 26.3452 38.544C26.3452 37.912 26.5172 37.412 26.8612 37.044C27.2052 36.668 27.6772 36.48 28.2772 36.48C28.8772 36.48 29.3492 36.668 29.6932 37.044C30.0372 37.42 30.2092 37.924 30.2092 38.556V38.772L28.9852 38.904V38.664C28.9852 38.344 28.9252 38.1 28.8052 37.932C28.6852 37.764 28.5132 37.68 28.2892 37.68C28.0652 37.68 27.8932 37.748 27.7732 37.884C27.6532 38.02 27.5932 38.22 27.5932 38.484C27.5932 38.748 27.6732 39.004 27.8332 39.252C27.9932 39.492 28.3012 39.84 28.7572 40.296C29.3812 40.92 29.8052 41.424 30.0292 41.808C30.2612 42.184 30.3772 42.6 30.3772 43.056C30.3772 43.456 30.2892 43.812 30.1132 44.124C29.9452 44.436 29.7052 44.68 29.3932 44.856C29.0812 45.032 28.7252 45.12 28.3252 45.12Z" fill="white"/>
<defs>
<filter id="filter0_d_213_20670" x="-1" y="0" width="32" height="32" filterUnits="userSpaceOnUse" color-interpolation-filters="sRGB">
<feFlood flood-opacity="0" result="BackgroundImageFix"/>
<feColorMatrix in="SourceAlpha" type="matrix" values="0 0 0 0 0 0 0 0 0 0 0 0 0 0 0 0 0 0 127 0" result="hardAlpha"/>
<feOffset dy="4"/>
<feGaussianBlur stdDeviation="2"/>
<feComposite in2="hardAlpha" operator="out"/>
<feColorMatrix type="matrix" values="0 0 0 0 0 0 0 0 0 0 0 0 0 0 0 0 0 0 0.25 0"/>
<feBlend mode="normal" in2="BackgroundImageFix" result="effect1_dropShadow_213_20670"/>
<feBlend mode="normal" in="SourceGraphic" in2="effect1_dropShadow_213_20670" result="shape"/>
</filter>
</defs>
</svg>
