<svg width="67" height="67" viewBox="0 0 67 67" fill="none" xmlns="http://www.w3.org/2000/svg">
<circle cx="33.5" cy="33.5" r="30.5" fill="#7384B3" stroke="white" stroke-width="6"/>
<path d="M34 23C33.0792 23 32.3333 23.7458 32.3333 24.6667V31.3333H25.6667C24.7458 31.3333 24 32.0792 24 33C24 33.9208 24.7458 34.6667 25.6667 34.6667H32.3333V41.3333C32.3333 42.2542 33.0792 43 34 43C34.9208 43 35.6667 42.2542 35.6667 41.3333V34.6667H42.3333C43.2542 34.6667 44 33.9208 44 33C44 32.0792 43.2542 31.3333 42.3333 31.3333H35.6667V24.6667C35.6667 23.7458 34.9208 23 34 23Z" fill="#EFD84F"/>
</svg>
