<svg width="36" height="47" viewBox="0 0 36 47" fill="none" xmlns="http://www.w3.org/2000/svg">
<g filter="url(#filter0_d_213_20678)">
<path d="M18 12.2501C17.56 12.2501 17.12 12.1401 16.72 11.9301L10.21 8.4201C9.62 8.1001 9.25 7.4701 9.25 6.7701C9.25 6.0701 9.62 5.4401 10.21 5.1201L16.72 1.6101C17.52 1.1801 18.48 1.1801 19.27 1.6101L25.78 5.1201C26.37 5.4401 26.74 6.0701 26.74 6.7701C26.74 7.4701 26.37 8.1001 25.78 8.4201L19.27 11.9301C18.88 12.1501 18.44 12.2501 18 12.2501ZM18 2.7801C17.81 2.7801 17.61 2.8301 17.43 2.9301L10.93 6.4301C10.76 6.5201 10.75 6.7101 10.75 6.7701C10.75 6.8301 10.76 7.0201 10.93 7.1001L17.44 10.6101C17.8 10.8001 18.21 10.8001 18.57 10.6101L25.08 7.1001C25.24 7.0101 25.26 6.8201 25.26 6.7701C25.26 6.7101 25.25 6.5201 25.08 6.4401L18.57 2.9301C18.39 2.8301 18.19 2.7801 18 2.7801Z" fill="white"/>
<path d="M15.78 22.7198C15.5 22.7198 15.21 22.6498 14.95 22.5198L8.89 19.4998C7.88 18.9898 7.25 17.9698 7.25 16.8398V11.1198C7.25 10.4698 7.58 9.87977 8.13 9.53977C8.69 9.19977 9.36 9.16977 9.94 9.45977L16 12.4798C17.01 12.9898 17.64 13.9998 17.64 15.1398V20.8598C17.64 21.5098 17.31 22.0998 16.76 22.4398C16.46 22.6298 16.12 22.7198 15.78 22.7198ZM9.11 10.7598C9.03 10.7598 8.96 10.7898 8.92 10.8098C8.86 10.8498 8.75 10.9398 8.75 11.1198V16.8398C8.75 17.3998 9.06 17.9098 9.56 18.1598L15.61 21.1898C15.77 21.2698 15.9 21.2098 15.96 21.1798C16.02 21.1398 16.13 21.0498 16.13 20.8698V15.1498C16.13 14.5898 15.82 14.0798 15.32 13.8298L9.27 10.7998C9.21 10.7698 9.16 10.7598 9.11 10.7598Z" fill="white"/>
<path d="M20.2199 22.72C19.8799 22.72 19.5399 22.63 19.2399 22.44C18.6899 22.1 18.3599 21.51 18.3599 20.86V15.14C18.3599 14.01 18.9899 12.99 19.9999 12.48L26.0499 9.45C26.6299 9.16 27.3099 9.19 27.8599 9.53C28.4099 9.87 28.7399 10.46 28.7399 11.11V16.83C28.7399 17.96 28.1099 18.98 27.0999 19.49L21.0499 22.52C20.7899 22.66 20.4999 22.72 20.2199 22.72ZM26.8899 10.76C26.8399 10.76 26.7899 10.77 26.7299 10.8L20.6799 13.83C20.1799 14.08 19.8699 14.58 19.8699 15.15V20.87C19.8699 21.05 19.9799 21.14 20.0399 21.18C20.0999 21.22 20.2299 21.27 20.3899 21.19L26.4399 18.16C26.9399 17.91 27.2499 17.4 27.2499 16.84V11.12C27.2499 10.94 27.1399 10.85 27.0799 10.81C27.0399 10.79 26.9699 10.76 26.8899 10.76Z" fill="white"/>
</g>
<path d="M0.830766 36.6H2.82277C3.43077 36.6 3.91477 36.784 4.27477 37.152C4.63477 37.512 4.81477 37.996 4.81477 38.604V39.588C4.81477 40.196 4.63477 40.684 4.27477 41.052C3.91477 41.412 3.43077 41.592 2.82277 41.592H2.10277V45H0.830766V36.6ZM2.76277 40.392C3.01077 40.392 3.20277 40.324 3.33877 40.188C3.47477 40.052 3.54277 39.86 3.54277 39.612V38.58C3.54277 38.332 3.47477 38.14 3.33877 38.004C3.20277 37.868 3.01077 37.8 2.76277 37.8H2.10277V40.392H2.76277ZM8.73755 45L7.81355 41.532H7.15355V45H5.88155V36.6H7.87355C8.48155 36.6 8.96555 36.784 9.32555 37.152C9.68555 37.512 9.86555 37.996 9.86555 38.604V39.528C9.86555 39.912 9.78955 40.252 9.63755 40.548C9.48555 40.844 9.26955 41.076 8.98955 41.244L10.0575 45H8.73755ZM7.15355 40.332H7.81355C8.06155 40.332 8.25355 40.264 8.38955 40.128C8.52555 39.992 8.59355 39.8 8.59355 39.552V38.58C8.59355 38.332 8.52555 38.14 8.38955 38.004C8.25355 37.868 8.06155 37.8 7.81355 37.8H7.15355V40.332ZM13.0284 45.12C12.4204 45.12 11.9284 44.936 11.5524 44.568C11.1764 44.192 10.9884 43.7 10.9884 43.092V38.508C10.9884 37.9 11.1764 37.412 11.5524 37.044C11.9284 36.668 12.4204 36.48 13.0284 36.48C13.6364 36.48 14.1284 36.668 14.5044 37.044C14.8804 37.412 15.0684 37.9 15.0684 38.508V43.092C15.0684 43.7 14.8804 44.192 14.5044 44.568C14.1284 44.936 13.6364 45.12 13.0284 45.12ZM13.0284 43.92C13.2684 43.92 13.4564 43.848 13.5924 43.704C13.7284 43.56 13.7964 43.356 13.7964 43.092V38.508C13.7964 38.244 13.7284 38.04 13.5924 37.896C13.4564 37.752 13.2684 37.68 13.0284 37.68C12.7884 37.68 12.6004 37.752 12.4644 37.896C12.3284 38.04 12.2604 38.244 12.2604 38.508V43.092C12.2604 43.356 12.3284 43.56 12.4644 43.704C12.6004 43.848 12.7884 43.92 13.0284 43.92ZM16.3581 36.6H18.3501C18.9581 36.6 19.4421 36.784 19.8021 37.152C20.1621 37.512 20.3421 37.996 20.3421 38.604V42.996C20.3421 43.604 20.1621 44.092 19.8021 44.46C19.4421 44.82 18.9581 45 18.3501 45H16.3581V36.6ZM18.2901 43.8C18.5381 43.8 18.7301 43.732 18.8661 43.596C19.0021 43.46 19.0701 43.268 19.0701 43.02V38.58C19.0701 38.332 19.0021 38.14 18.8661 38.004C18.7301 37.868 18.5381 37.8 18.2901 37.8H17.6301V43.8H18.2901ZM23.5518 45.12C22.9678 45.12 22.4918 44.94 22.1238 44.58C21.7558 44.212 21.5718 43.736 21.5718 43.152V36.6H22.8438V43.152C22.8438 43.392 22.9078 43.58 23.0358 43.716C23.1718 43.852 23.3438 43.92 23.5518 43.92C23.7598 43.92 23.9278 43.852 24.0558 43.716C24.1918 43.58 24.2598 43.392 24.2598 43.152V36.6H25.5078V43.152C25.5078 43.736 25.3278 44.212 24.9678 44.58C24.6078 44.94 24.1358 45.12 23.5518 45.12ZM28.7304 45.12C28.1384 45.12 27.6584 44.936 27.2904 44.568C26.9224 44.2 26.7384 43.72 26.7384 43.128V38.472C26.7384 37.88 26.9224 37.4 27.2904 37.032C27.6584 36.664 28.1384 36.48 28.7304 36.48C29.3224 36.48 29.8024 36.664 30.1704 37.032C30.5384 37.4 30.7224 37.88 30.7224 38.472V39.456H29.4744V38.472C29.4744 38.232 29.4064 38.04 29.2704 37.896C29.1344 37.752 28.9584 37.68 28.7424 37.68C28.5264 37.68 28.3504 37.752 28.2144 37.896C28.0784 38.04 28.0104 38.232 28.0104 38.472V43.128C28.0104 43.368 28.0784 43.56 28.2144 43.704C28.3504 43.848 28.5264 43.92 28.7424 43.92C28.9584 43.92 29.1344 43.848 29.2704 43.704C29.4064 43.56 29.4744 43.368 29.4744 43.128V41.928H30.7224V43.128C30.7224 43.72 30.5384 44.2 30.1704 44.568C29.8024 44.936 29.3224 45.12 28.7304 45.12ZM31.5243 36.6H35.5803V37.8H34.1883V45H32.9163V37.8H31.5243V36.6Z" fill="white"/>
<defs>
<filter id="filter0_d_213_20678" x="2" y="0" width="32" height="32" filterUnits="userSpaceOnUse" color-interpolation-filters="sRGB">
<feFlood flood-opacity="0" result="BackgroundImageFix"/>
<feColorMatrix in="SourceAlpha" type="matrix" values="0 0 0 0 0 0 0 0 0 0 0 0 0 0 0 0 0 0 127 0" result="hardAlpha"/>
<feOffset dy="4"/>
<feGaussianBlur stdDeviation="2"/>
<feComposite in2="hardAlpha" operator="out"/>
<feColorMatrix type="matrix" values="0 0 0 0 0 0 0 0 0 0 0 0 0 0 0 0 0 0 0.25 0"/>
<feBlend mode="normal" in2="BackgroundImageFix" result="effect1_dropShadow_213_20678"/>
<feBlend mode="normal" in="SourceGraphic" in2="effect1_dropShadow_213_20678" result="shape"/>
</filter>
</defs>
</svg>
