<svg width="54" height="47" viewBox="0 0 54 47" fill="none" xmlns="http://www.w3.org/2000/svg">
<g filter="url(#filter0_d_213_20674)">
<path d="M28 22.75C22.07 22.75 17.25 17.93 17.25 12C17.25 9.64 18 7.4 19.42 5.52C19.67 5.19 20.14 5.13 20.47 5.38C20.8 5.63 20.87 6.1 20.62 6.43C19.4 8.04 18.75 9.97 18.75 12C18.75 17.1 22.9 21.25 28 21.25C33.1 21.25 37.25 17.1 37.25 12C37.25 6.9 33.1 2.75 28 2.75C27.59 2.75 27.25 2.41 27.25 2C27.25 1.59 27.59 1.25 28 1.25C33.93 1.25 38.75 6.07 38.75 12C38.75 17.93 33.93 22.75 28 22.75Z" fill="white"/>
<path d="M28 19.75C23.73 19.75 20.25 16.27 20.25 12C20.25 11.59 20.59 11.25 21 11.25C21.41 11.25 21.75 11.59 21.75 12C21.75 15.45 24.55 18.25 28 18.25C31.45 18.25 34.25 15.45 34.25 12C34.25 8.55 31.45 5.75 28 5.75C27.59 5.75 27.25 5.41 27.25 5C27.25 4.59 27.59 4.25 28 4.25C32.27 4.25 35.75 7.73 35.75 12C35.75 16.27 32.27 19.75 28 19.75Z" fill="white"/>
<path d="M28 16.75C27.59 16.75 27.25 16.41 27.25 16C27.25 15.59 27.59 15.25 28 15.25C29.79 15.25 31.25 13.79 31.25 12C31.25 10.21 29.79 8.75 28 8.75C27.59 8.75 27.25 8.41 27.25 8C27.25 7.59 27.59 7.25 28 7.25C30.62 7.25 32.75 9.38 32.75 12C32.75 14.62 30.62 16.75 28 16.75Z" fill="white"/>
</g>
<path d="M2.82328 45.12C2.42328 45.12 2.06728 45.032 1.75528 44.856C1.44328 44.68 1.19928 44.436 1.02328 44.124C0.855281 43.812 0.771281 43.456 0.771281 43.056V42.756L1.99528 42.624V42.936C1.99528 43.24 2.06728 43.48 2.21128 43.656C2.35528 43.832 2.55528 43.92 2.81128 43.92C3.05928 43.92 3.25528 43.848 3.39928 43.704C3.55128 43.56 3.62728 43.364 3.62728 43.116C3.62728 42.844 3.54728 42.584 3.38728 42.336C3.23528 42.088 2.92728 41.744 2.46328 41.304C1.83928 40.712 1.41128 40.22 1.17928 39.828C0.955281 39.436 0.843281 39.008 0.843281 38.544C0.843281 37.912 1.01528 37.412 1.35928 37.044C1.70328 36.668 2.17528 36.48 2.77528 36.48C3.37528 36.48 3.84728 36.668 4.19128 37.044C4.53528 37.42 4.70728 37.924 4.70728 38.556V38.772L3.48328 38.904V38.664C3.48328 38.344 3.42328 38.1 3.30328 37.932C3.18328 37.764 3.01128 37.68 2.78728 37.68C2.56328 37.68 2.39128 37.748 2.27128 37.884C2.15128 38.02 2.09128 38.22 2.09128 38.484C2.09128 38.748 2.17128 39.004 2.33128 39.252C2.49128 39.492 2.79928 39.84 3.25528 40.296C3.87928 40.92 4.30328 41.424 4.52728 41.808C4.75928 42.184 4.87528 42.6 4.87528 43.056C4.87528 43.456 4.78728 43.812 4.61128 44.124C4.44328 44.436 4.20328 44.68 3.89128 44.856C3.57928 45.032 3.22328 45.12 2.82328 45.12ZM7.88972 45.12C7.30572 45.12 6.82972 44.94 6.46172 44.58C6.09372 44.212 5.90972 43.736 5.90972 43.152V36.6H7.18172V43.152C7.18172 43.392 7.24572 43.58 7.37372 43.716C7.50972 43.852 7.68172 43.92 7.88972 43.92C8.09772 43.92 8.26572 43.852 8.39372 43.716C8.52972 43.58 8.59772 43.392 8.59772 43.152V36.6H9.84572V43.152C9.84572 43.736 9.66572 44.212 9.30572 44.58C8.94572 44.94 8.47372 45.12 7.88972 45.12ZM14.3403 40.656C14.6523 40.8 14.8883 41.012 15.0483 41.292C15.2163 41.572 15.3003 41.912 15.3003 42.312V42.996C15.3003 43.604 15.1203 44.092 14.7603 44.46C14.4003 44.82 13.9163 45 13.3083 45H11.1843V36.6H13.2003C13.8083 36.6 14.2923 36.784 14.6523 37.152C15.0123 37.512 15.1923 37.996 15.1923 38.604V39.048C15.1923 39.8 14.9083 40.336 14.3403 40.656ZM12.4563 37.8V40.08H13.0203C13.3243 40.08 13.5483 40.008 13.6923 39.864C13.8443 39.712 13.9203 39.484 13.9203 39.18V38.58C13.9203 38.332 13.8523 38.14 13.7163 38.004C13.5803 37.868 13.3883 37.8 13.1403 37.8H12.4563ZM14.0283 42.18C14.0283 41.876 13.9523 41.652 13.8003 41.508C13.6563 41.356 13.4323 41.28 13.1283 41.28H12.4563V43.8H13.2483C13.4963 43.8 13.6883 43.732 13.8243 43.596C13.9603 43.46 14.0283 43.268 14.0283 43.02V42.18ZM18.2217 45.12C17.8217 45.12 17.4657 45.032 17.1537 44.856C16.8417 44.68 16.5977 44.436 16.4217 44.124C16.2537 43.812 16.1697 43.456 16.1697 43.056V42.756L17.3937 42.624V42.936C17.3937 43.24 17.4657 43.48 17.6097 43.656C17.7537 43.832 17.9537 43.92 18.2097 43.92C18.4577 43.92 18.6537 43.848 18.7977 43.704C18.9497 43.56 19.0257 43.364 19.0257 43.116C19.0257 42.844 18.9457 42.584 18.7857 42.336C18.6337 42.088 18.3257 41.744 17.8617 41.304C17.2377 40.712 16.8097 40.22 16.5777 39.828C16.3537 39.436 16.2417 39.008 16.2417 38.544C16.2417 37.912 16.4137 37.412 16.7577 37.044C17.1017 36.668 17.5737 36.48 18.1737 36.48C18.7737 36.48 19.2457 36.668 19.5897 37.044C19.9337 37.42 20.1057 37.924 20.1057 38.556V38.772L18.8817 38.904V38.664C18.8817 38.344 18.8217 38.1 18.7017 37.932C18.5817 37.764 18.4097 37.68 18.1857 37.68C17.9617 37.68 17.7897 37.748 17.6697 37.884C17.5497 38.02 17.4897 38.22 17.4897 38.484C17.4897 38.748 17.5697 39.004 17.7297 39.252C17.8897 39.492 18.1977 39.84 18.6537 40.296C19.2777 40.92 19.7017 41.424 19.9257 41.808C20.1577 42.184 20.2737 42.6 20.2737 43.056C20.2737 43.456 20.1857 43.812 20.0097 44.124C19.8417 44.436 19.6017 44.68 19.2897 44.856C18.9777 45.032 18.6217 45.12 18.2217 45.12ZM23.2402 45.12C22.6482 45.12 22.1682 44.936 21.8002 44.568C21.4322 44.2 21.2482 43.72 21.2482 43.128V38.472C21.2482 37.88 21.4322 37.4 21.8002 37.032C22.1682 36.664 22.6482 36.48 23.2402 36.48C23.8322 36.48 24.3122 36.664 24.6802 37.032C25.0482 37.4 25.2322 37.88 25.2322 38.472V39.456H23.9842V38.472C23.9842 38.232 23.9162 38.04 23.7802 37.896C23.6442 37.752 23.4682 37.68 23.2522 37.68C23.0362 37.68 22.8602 37.752 22.7242 37.896C22.5882 38.04 22.5202 38.232 22.5202 38.472V43.128C22.5202 43.368 22.5882 43.56 22.7242 43.704C22.8602 43.848 23.0362 43.92 23.2522 43.92C23.4682 43.92 23.6442 43.848 23.7802 43.704C23.9162 43.56 23.9842 43.368 23.9842 43.128V41.928H25.2322V43.128C25.2322 43.72 25.0482 44.2 24.6802 44.568C24.3122 44.936 23.8322 45.12 23.2402 45.12ZM29.2512 45L28.3272 41.532H27.6672V45H26.3952V36.6H28.3872C28.9952 36.6 29.4792 36.784 29.8392 37.152C30.1992 37.512 30.3792 37.996 30.3792 38.604V39.528C30.3792 39.912 30.3032 40.252 30.1512 40.548C29.9992 40.844 29.7832 41.076 29.5032 41.244L30.5712 45H29.2512ZM27.6672 40.332H28.3272C28.5752 40.332 28.7672 40.264 28.9032 40.128C29.0392 39.992 29.1072 39.8 29.1072 39.552V38.58C29.1072 38.332 29.0392 38.14 28.9032 38.004C28.7672 37.868 28.5752 37.8 28.3272 37.8H27.6672V40.332ZM31.6101 36.6H32.8821V45H31.6101V36.6ZM37.4262 40.656C37.7382 40.8 37.9742 41.012 38.1342 41.292C38.3022 41.572 38.3862 41.912 38.3862 42.312V42.996C38.3862 43.604 38.2062 44.092 37.8462 44.46C37.4862 44.82 37.0022 45 36.3942 45H34.2702V36.6H36.2862C36.8942 36.6 37.3782 36.784 37.7382 37.152C38.0982 37.512 38.2782 37.996 38.2782 38.604V39.048C38.2782 39.8 37.9942 40.336 37.4262 40.656ZM35.5422 37.8V40.08H36.1062C36.4102 40.08 36.6342 40.008 36.7782 39.864C36.9302 39.712 37.0062 39.484 37.0062 39.18V38.58C37.0062 38.332 36.9382 38.14 36.8022 38.004C36.6662 37.868 36.4742 37.8 36.2262 37.8H35.5422ZM37.1142 42.18C37.1142 41.876 37.0382 41.652 36.8862 41.508C36.7422 41.356 36.5182 41.28 36.2142 41.28H35.5422V43.8H36.3342C36.5822 43.8 36.7742 43.732 36.9102 43.596C37.0462 43.46 37.1142 43.268 37.1142 43.02V42.18ZM39.5437 36.6H43.1557V37.8H40.8157V40.14H42.6757V41.34H40.8157V43.8H43.1557V45H39.5437V36.6ZM47.0754 45L46.1514 41.532H45.4914V45H44.2194V36.6H46.2114C46.8194 36.6 47.3034 36.784 47.6634 37.152C48.0234 37.512 48.2034 37.996 48.2034 38.604V39.528C48.2034 39.912 48.1274 40.252 47.9754 40.548C47.8234 40.844 47.6074 41.076 47.3274 41.244L48.3954 45H47.0754ZM45.4914 40.332H46.1514C46.3994 40.332 46.5914 40.264 46.7274 40.128C46.8634 39.992 46.9314 39.8 46.9314 39.552V38.58C46.9314 38.332 46.8634 38.14 46.7274 38.004C46.5914 37.868 46.3994 37.8 46.1514 37.8H45.4914V40.332ZM51.1983 45.12C50.7983 45.12 50.4423 45.032 50.1303 44.856C49.8183 44.68 49.5743 44.436 49.3983 44.124C49.2303 43.812 49.1463 43.456 49.1463 43.056V42.756L50.3703 42.624V42.936C50.3703 43.24 50.4423 43.48 50.5863 43.656C50.7303 43.832 50.9303 43.92 51.1863 43.92C51.4343 43.92 51.6303 43.848 51.7743 43.704C51.9263 43.56 52.0023 43.364 52.0023 43.116C52.0023 42.844 51.9223 42.584 51.7623 42.336C51.6103 42.088 51.3023 41.744 50.8383 41.304C50.2143 40.712 49.7863 40.22 49.5543 39.828C49.3303 39.436 49.2183 39.008 49.2183 38.544C49.2183 37.912 49.3903 37.412 49.7343 37.044C50.0783 36.668 50.5503 36.48 51.1503 36.48C51.7503 36.48 52.2223 36.668 52.5663 37.044C52.9103 37.42 53.0823 37.924 53.0823 38.556V38.772L51.8583 38.904V38.664C51.8583 38.344 51.7983 38.1 51.6783 37.932C51.5583 37.764 51.3863 37.68 51.1623 37.68C50.9383 37.68 50.7663 37.748 50.6463 37.884C50.5263 38.02 50.4663 38.22 50.4663 38.484C50.4663 38.748 50.5463 39.004 50.7063 39.252C50.8663 39.492 51.1743 39.84 51.6303 40.296C52.2543 40.92 52.6783 41.424 52.9023 41.808C53.1343 42.184 53.2503 42.6 53.2503 43.056C53.2503 43.456 53.1623 43.812 52.9863 44.124C52.8183 44.436 52.5783 44.68 52.2663 44.856C51.9543 45.032 51.5983 45.12 51.1983 45.12Z" fill="white"/>
<defs>
<filter id="filter0_d_213_20674" x="12" y="0" width="32" height="32" filterUnits="userSpaceOnUse" color-interpolation-filters="sRGB">
<feFlood flood-opacity="0" result="BackgroundImageFix"/>
<feColorMatrix in="SourceAlpha" type="matrix" values="0 0 0 0 0 0 0 0 0 0 0 0 0 0 0 0 0 0 127 0" result="hardAlpha"/>
<feOffset dy="4"/>
<feGaussianBlur stdDeviation="2"/>
<feComposite in2="hardAlpha" operator="out"/>
<feColorMatrix type="matrix" values="0 0 0 0 0 0 0 0 0 0 0 0 0 0 0 0 0 0 0.25 0"/>
<feBlend mode="normal" in2="BackgroundImageFix" result="effect1_dropShadow_213_20674"/>
<feBlend mode="normal" in="SourceGraphic" in2="effect1_dropShadow_213_20674" result="shape"/>
</filter>
</defs>
</svg>
